<svg width="200" height="60" viewBox="0 0 200 60" fill="none" xmlns="http://www.w3.org/2000/svg">
  <circle cx="30" cy="30" r="25" fill="#F39C12"/>
  <path d="M30 5C16.2 5 5 16.2 5 30C5 43.8 16.2 55 30 55C43.8 55 55 43.8 55 30C55 16.2 43.8 5 30 5ZM30 50C19 50 10 41 10 30C10 19 19 10 30 10C41 10 50 19 50 30C50 41 41 50 30 50Z" fill="#E67E22"/>
  <path d="M30 15L35 25H25L30 15Z" fill="white"/>
  <path d="M30 45L25 35H35L30 45Z" fill="white"/>
  <path d="M15 30L25 25V35L15 30Z" fill="white"/>
  <path d="M45 30L35 35V25L45 30Z" fill="white"/>
  <text x="70" y="35" font-family="Arial" font-weight="bold" font-size="20" fill="#333">African Sun</text>
</svg>