<svg xmlns="http://www.w3.org/2000/svg" xmlns:v="https://svgstorm.com"
viewBox = "0 0 512 373"
width="512"
height="373">
<g fill="None" fill-opacity="0.0" stroke="#000000" stroke-opacity="0.00" stroke-width="0.3"><path d="
M 0.00 264.00 
C 2.29 263.15 4.08 261.41 6.00 260.00
C 6.96 259.29 8.07 258.67 9.00 258.00
C 9.95 257.32 11.12 256.69 12.00 256.00
C 14.89 253.76 17.96 251.24 21.00 249.00
C 21.95 248.30 23.12 247.69 24.00 247.00
C 28.22 243.73 32.59 240.21 37.00 237.00
C 41.35 233.83 45.61 230.66 50.00 228.00
C 54.97 224.19 59.92 219.88 65.00 216.00
C 66.32 214.99 67.67 213.90 69.00 213.00
C 69.26 212.77 69.70 212.21 70.00 212.00
C 76.07 207.72 82.03 203.35 88.00 199.00
C 88.76 198.26 89.12 197.64 90.00 197.00
C 101.69 188.47 113.81 180.11 125.00 171.00
C 125.25 170.75 126.00 170.01 126.00 170.00
C 125.94 169.86 127.92 169.05 128.00 169.00
C 128.73 168.38 129.18 167.60 130.00 167.00
C 159.27 145.65 188.08 123.72 217.00 102.00
C 221.26 98.80 225.59 95.21 230.00 92.00
C 236.92 86.95 243.50 80.71 251.00 77.00
C 253.65 74.97 253.76 72.97 257.00 74.00
C 268.44 77.65 276.55 90.92 287.25 96.75 C 297.94 102.59 307.22 112.45 317.70 119.30 C 328.17 126.16 337.43 134.97 347.75 142.25 C 358.07 149.53 368.57 157.63 378.75 165.25 C 388.92 172.87 398.87 180.42 409.08 187.92 C 419.30 195.42 428.93 203.37 439.23 210.77 C 449.53 218.17 459.72 226.51 470.00 234.00
C 476.57 238.79 482.72 244.19 489.00 249.00
C 495.90 253.18 502.21 259.86 509.00 264.00
C 509.70 264.42 511.30 264.25 512.00 265.00
L 512.00 0.00
L 0.00 0.00
L 0.00 264.00 Z"/>
</g>
<g fill="None" fill-opacity="0.0" stroke="#78A778" stroke-opacity="0.24" stroke-width="0.3"><path d="
M 251.00 77.00 
C 253.04 75.99 255.42 75.26 257.00 74.00
C 253.76 72.97 253.65 74.97 251.00 77.00 Z"/>
</g>
<g fill="None" fill-opacity="0.0" stroke="#448849" stroke-opacity="0.65" stroke-width="0.3"><path d="
M 251.00 77.00 
C 243.50 80.71 236.92 86.95 230.00 92.00
C 225.93 95.77 220.61 100.05 217.00 102.00
C 188.08 123.72 159.27 145.65 130.00 167.00
C 129.19 167.78 129.00 168.37 128.00 169.00
C 127.92 169.05 125.94 169.86 126.00 170.00
C 125.74 170.24 125.28 170.77 125.00 171.00
C 113.81 180.11 101.69 188.47 90.00 197.00
C 89.24 197.74 88.88 198.36 88.00 199.00
C 82.03 203.35 76.07 207.72 70.00 212.00
C 69.74 212.23 69.31 212.79 69.00 213.00
C 67.67 213.90 66.32 214.99 65.00 216.00
C 60.36 220.46 55.53 224.65 50.00 228.00
C 45.61 230.66 41.35 233.83 37.00 237.00
C 32.93 240.77 27.59 245.03 24.00 247.00
C 23.12 247.69 21.95 248.30 21.00 249.00
C 17.94 251.81 15.39 253.90 12.00 256.00
C 11.12 256.69 9.95 257.32 9.00 258.00
C 7.98 258.95 7.08 260.11 6.00 261.00
C 4.07 262.60 1.05 264.21 1.00 267.00
C 2.00 267.00 3.00 267.00 4.00 267.00
C 18.22 265.72 32.78 268.28 47.00 267.00
C 46.96 267.00 47.00 266.00 47.00 266.00
C 45.67 266.00 44.33 266.00 43.00 266.00
C 29.83 266.00 15.34 266.83 3.00 265.00
C 9.19 260.30 15.11 256.02 21.25 251.25 C 27.38 246.47 34.06 242.04 40.23 237.23 C 46.40 232.42 52.87 227.74 59.08 223.08 C 65.30 218.42 71.14 214.06 77.25 209.25 C 83.36 204.44 90.12 200.12 96.23 195.23 C 102.34 190.34 109.01 185.91 115.23 181.23 C 121.45 176.55 126.88 171.73 133.25 167.25 C 139.61 162.76 145.96 157.98 152.25 153.25 C 158.53 148.51 164.85 143.93 171.08 139.08 C 177.32 134.23 183.87 129.94 190.08 125.08 C 196.29 120.22 201.99 116.29 208.25 111.25 C 214.50 106.20 220.89 102.78 227.08 97.08 C 233.28 91.38 239.80 89.67 246.08 83.08 C 252.36 76.49 257.96 76.23 264.25 82.75 C 270.53 89.28 277.13 90.96 283.25 96.75 C 289.36 102.55 296.15 105.42 302.23 110.77 C 308.31 116.12 314.48 119.44 320.70 124.30 C 326.92 129.17 332.83 134.26 339.25 138.75 C 345.66 143.25 351.97 148.06 358.23 152.77 C 364.49 157.48 370.99 162.11 377.23 166.77 C 383.47 171.43 388.96 176.18 395.25 180.75 C 401.53 185.33 407.93 190.15 414.25 194.75 C 420.56 199.36 426.56 204.73 433.08 208.92 C 439.60 213.11 444.91 218.27 451.25 222.75 C 457.58 227.23 463.99 232.03 470.23 236.77 C 476.47 241.51 482.88 246.18 489.23 250.77 C 495.58 255.36 501.47 260.67 508.00 265.00
C 483.91 267.33 457.85 265.33 433.00 266.00
C 433.09 266.48 433.00 267.00 433.00 267.00
C 433.50 267.00 434.00 267.00 434.00 267.00
C 459.67 267.00 485.33 267.00 511.00 267.00
C 510.70 265.75 509.17 265.29 509.00 264.00
C 502.21 259.86 495.90 253.18 489.00 249.00
C 482.08 244.80 475.85 239.40 470.00 234.00
C 459.72 226.51 449.53 218.17 439.23 210.77 C 428.93 203.37 419.30 195.42 409.08 187.92 C 398.87 180.42 388.92 172.87 378.75 165.25 C 368.57 157.63 358.07 149.53 347.75 142.25 C 337.43 134.97 328.17 126.16 317.70 119.30 C 307.22 112.45 297.94 102.59 287.25 96.75 C 276.55 90.92 268.44 77.65 257.00 74.00
C 255.42 75.26 253.04 75.99 251.00 77.00 Z"/>
</g>
<g fill="None" fill-opacity="0.0" stroke="#1FB149" stroke-opacity="1.00" stroke-width="0.3"><path d="
M 43.00 266.00 
C 43.25 265.91 45.63 264.23 46.00 264.00
C 72.97 247.03 100.02 228.93 127.70 212.70 C 155.37 196.47 181.76 177.38 209.75 161.75 C 237.73 146.11 263.26 124.84 292.00 111.00
C 292.85 110.59 293.76 109.11 295.00 109.00
C 294.43 111.45 290.99 113.21 289.00 115.00
C 270.30 130.98 253.04 148.35 234.25 164.25 C 215.45 180.14 198.12 198.54 178.92 213.92 C 159.71 229.30 143.49 249.36 124.00 264.00
C 124.00 264.14 125.05 265.20 125.00 266.00
C 129.58 265.59 134.40 266.00 139.00 266.00
C 139.33 265.88 141.53 264.28 142.00 264.00
C 174.76 244.59 205.79 221.87 239.08 203.08 C 272.36 184.29 302.95 159.11 337.00 142.00
C 337.87 141.56 338.24 139.10 340.00 140.00
C 338.74 141.93 337.00 143.91 335.00 145.00
C 311.83 163.29 291.93 185.53 268.75 203.75 C 245.57 221.98 226.43 246.40 203.00 264.00
C 203.00 264.14 204.05 265.20 204.00 266.00
C 213.49 265.14 223.47 266.00 233.00 266.00
C 233.65 265.72 235.23 263.54 236.00 263.00
C 282.12 230.38 333.36 204.56 380.00 173.00
C 348.65 201.70 316.82 230.65 285.00 259.00
C 282.96 261.04 280.40 263.25 282.00 266.00
C 296.67 266.00 311.33 266.00 326.00 266.00
C 326.33 265.88 328.53 264.28 329.00 264.00
C 359.85 245.72 389.56 224.29 421.00 207.00
C 401.21 226.83 378.91 244.46 359.00 264.00
C 358.97 264.61 359.88 265.34 360.00 266.00
C 379.96 264.20 400.94 266.00 421.00 266.00
C 421.65 265.72 423.23 263.54 424.00 263.00
C 436.22 254.36 449.63 247.39 462.00 239.00
C 453.58 247.80 441.22 255.31 432.00 264.00
C 431.94 264.52 432.89 265.41 433.00 266.00
C 457.85 265.33 483.91 267.33 508.00 265.00
C 501.47 260.67 495.58 255.36 489.23 250.77 C 482.88 246.18 476.47 241.51 470.23 236.77 C 463.99 232.03 457.58 227.23 451.25 222.75 C 444.91 218.27 439.60 213.11 433.08 208.92 C 426.56 204.73 420.56 199.36 414.25 194.75 C 407.93 190.15 401.53 185.33 395.25 180.75 C 388.96 176.18 383.47 171.43 377.23 166.77 C 370.99 162.11 364.49 157.48 358.23 152.77 C 351.97 148.06 345.66 143.25 339.25 138.75 C 332.83 134.26 326.92 129.17 320.70 124.30 C 314.48 119.44 308.31 116.12 302.23 110.77 C 296.15 105.42 289.36 102.55 283.25 96.75 C 277.13 90.96 270.53 89.28 264.25 82.75 C 257.96 76.23 252.36 76.49 246.08 83.08 C 239.80 89.67 233.28 91.38 227.08 97.08 C 220.89 102.78 214.50 106.20 208.25 111.25 C 201.99 116.29 196.29 120.22 190.08 125.08 C 183.87 129.94 177.32 134.23 171.08 139.08 C 164.85 143.93 158.53 148.51 152.25 153.25 C 145.96 157.98 139.61 162.76 133.25 167.25 C 126.88 171.73 121.45 176.55 115.23 181.23 C 109.01 185.91 102.34 190.34 96.23 195.23 C 90.12 200.12 83.36 204.44 77.25 209.25 C 71.14 214.06 65.30 218.42 59.08 223.08 C 52.87 227.74 46.40 232.42 40.23 237.23 C 34.06 242.04 27.38 246.47 21.25 251.25 C 15.11 256.02 9.19 260.30 3.00 265.00
C 15.34 266.83 29.83 266.00 43.00 266.00 Z"/>
</g>
<g fill="None" fill-opacity="0.0" stroke="#689A6C" stroke-opacity="0.16" stroke-width="0.3"><path d="
M 217.00 102.00 
C 220.61 100.05 225.93 95.77 230.00 92.00
C 225.59 95.21 221.26 98.80 217.00 102.00 Z"/>
</g>
<g fill="None" fill-opacity="0.0" stroke="#A3C715" stroke-opacity="1.00" stroke-width="0.3"><path d="
M 292.00 111.00 
C 290.85 111.97 290.01 113.95 289.00 115.00
C 290.99 113.21 294.43 111.45 295.00 109.00
C 293.76 109.11 292.85 110.59 292.00 111.00 Z"/>
</g>
<g fill="None" fill-opacity="0.0" stroke="#FCF000" stroke-opacity="1.00" stroke-width="0.3"><path d="
M 46.00 264.00 
C 46.48 264.08 48.34 265.33 48.00 266.00
C 59.72 266.00 75.70 267.40 87.00 266.00 C 98.30 264.60 115.11 270.68 124.00 264.00
C 143.49 249.36 159.71 229.30 178.92 213.92 C 198.12 198.54 215.45 180.14 234.25 164.25 C 253.04 148.35 270.30 130.98 289.00 115.00
C 290.01 113.95 290.85 111.97 292.00 111.00
C 263.26 124.84 237.73 146.11 209.75 161.75 C 181.76 177.38 155.37 196.47 127.70 212.70 C 100.02 228.93 72.97 247.03 46.00 264.00 Z"/>
</g>
<g fill="None" fill-opacity="0.0" stroke="#91C322" stroke-opacity="1.00" stroke-width="0.3"><path d="
M 337.00 142.00 
C 336.25 142.83 335.72 144.24 335.00 145.00
C 337.00 143.91 338.74 141.93 340.00 140.00
C 338.24 139.10 337.87 141.56 337.00 142.00 Z"/>
</g>
<g fill="None" fill-opacity="0.0" stroke="#FBF000" stroke-opacity="1.00" stroke-width="0.3"><path d="
M 142.00 264.00 
C 143.18 264.19 143.34 265.70 144.00 266.00
C 153.34 265.16 164.90 267.33 174.00 266.00 C 183.10 264.67 195.63 269.54 203.00 264.00
C 226.43 246.40 245.57 221.98 268.75 203.75 C 291.93 185.53 311.83 163.29 335.00 145.00
C 335.72 144.24 336.25 142.83 337.00 142.00
C 302.95 159.11 272.36 184.29 239.08 203.08 C 205.79 221.87 174.76 244.59 142.00 264.00 Z"/>
</g>
<g fill="None" fill-opacity="0.0" stroke="#BECEBD" stroke-opacity="0.02" stroke-width="0.3"><path d="
M 128.00 169.00 
C 129.00 168.37 129.19 167.78 130.00 167.00
C 129.18 167.60 128.73 168.38 128.00 169.00 Z"/>
</g>
<g fill="None" fill-opacity="0.0" stroke="#FFFFFF" stroke-opacity="0.00" stroke-width="0.3"><path d="
M 125.00 171.00 
C 125.28 170.77 125.74 170.24 126.00 170.00
C 126.00 170.01 125.25 170.75 125.00 171.00 Z"/>
</g>
<g fill="None" fill-opacity="0.0" stroke="#FAEF00" stroke-opacity="1.00" stroke-width="0.3"><path d="
M 236.00 263.00 
C 236.03 262.85 237.25 266.19 237.00 266.00
C 250.42 264.79 264.52 266.00 278.00 266.00
C 279.71 265.37 283.41 260.36 285.00 259.00
C 316.82 230.65 348.65 201.70 380.00 173.00
C 333.36 204.56 282.12 230.38 236.00 263.00 Z"/>
</g>
<g fill="None" fill-opacity="0.0" stroke="#BED4BD" stroke-opacity="0.02" stroke-width="0.3"><path d="
M 88.00 199.00 
C 88.88 198.36 89.24 197.74 90.00 197.00
C 89.12 197.64 88.76 198.26 88.00 199.00 Z"/>
</g>
<g fill="None" fill-opacity="0.0" stroke="#F8EE01" stroke-opacity="1.00" stroke-width="0.3"><path d="
M 329.00 264.00 
C 330.18 264.19 330.34 265.70 331.00 266.00
C 339.19 265.26 352.33 269.01 359.00 264.00
C 378.91 244.46 401.21 226.83 421.00 207.00
C 389.56 224.29 359.85 245.72 329.00 264.00 Z"/>
</g>
<g fill="None" fill-opacity="0.0" stroke="#FFFFFF" stroke-opacity="0.00" stroke-width="0.3"><path d="
M 69.00 213.00 
C 69.31 212.79 69.74 212.23 70.00 212.00
C 69.70 212.21 69.26 212.77 69.00 213.00 Z"/>
</g>
<g fill="None" fill-opacity="0.0" stroke="#66966B" stroke-opacity="0.14" stroke-width="0.3"><path d="
M 50.00 228.00 
C 55.53 224.65 60.36 220.46 65.00 216.00
C 59.92 219.88 54.97 224.19 50.00 228.00 Z"/>
</g>
<g fill="None" fill-opacity="0.0" stroke="#5D9260" stroke-opacity="0.14" stroke-width="0.3"><path d="
M 489.00 249.00 
C 482.72 244.19 476.57 238.79 470.00 234.00
C 475.85 239.40 482.08 244.80 489.00 249.00 Z"/>
</g>
<g fill="None" fill-opacity="0.0" stroke="#6C9675" stroke-opacity="0.15" stroke-width="0.3"><path d="
M 24.00 247.00 
C 27.59 245.03 32.93 240.77 37.00 237.00
C 32.59 240.21 28.22 243.73 24.00 247.00 Z"/>
</g>
<g fill="None" fill-opacity="0.0" stroke="#E8E604" stroke-opacity="1.00" stroke-width="0.3"><path d="
M 424.00 263.00 
C 423.83 263.77 425.77 264.96 425.00 266.00
C 428.10 266.26 429.59 265.60 432.00 264.00
C 441.22 255.31 453.58 247.80 462.00 239.00
C 449.63 247.39 436.22 254.36 424.00 263.00 Z"/>
</g>
<g fill="None" fill-opacity="0.0" stroke="#6D9C74" stroke-opacity="0.12" stroke-width="0.3"><path d="
M 12.00 256.00 
C 15.39 253.90 17.94 251.81 21.00 249.00
C 17.96 251.24 14.89 253.76 12.00 256.00 Z"/>
</g>
<g fill="None" fill-opacity="0.0" stroke="#76AE78" stroke-opacity="0.09" stroke-width="0.3"><path d="
M 6.00 260.00 
C 5.75 260.27 6.00 261.00 6.00 261.00
C 7.08 260.11 7.98 258.95 9.00 258.00
C 8.07 258.67 6.96 259.29 6.00 260.00 Z"/>
</g>
<g fill="None" fill-opacity="0.0" stroke="#A3B70F" stroke-opacity="1.00" stroke-width="0.3"><path d="
M 278.00 266.00 
C 279.00 266.00 280.00 266.00 281.00 266.00
C 281.50 266.00 282.00 266.00 282.00 266.00
C 280.40 263.25 282.96 261.04 285.00 259.00
C 283.41 260.36 279.71 265.37 278.00 266.00 Z"/>
</g>
<g fill="None" fill-opacity="0.0" stroke="#A3CCAC" stroke-opacity="0.34" stroke-width="0.3"><path d="
M 0.00 264.00 
L 0.00 268.00
C 1.33 268.00 2.67 268.00 4.00 268.00
C 4.22 267.87 4.00 267.00 4.00 267.00
C 3.00 267.00 2.00 267.00 1.00 267.00
C 1.05 264.21 4.07 262.60 6.00 261.00
C 6.00 261.00 5.75 260.27 6.00 260.00
C 4.08 261.41 2.29 263.15 0.00 264.00 Z"/>
</g>
<g fill="None" fill-opacity="0.0" stroke="#80E470" stroke-opacity="1.00" stroke-width="0.3"><path d="
M 233.00 266.00 
C 233.85 266.00 236.29 265.57 237.00 266.00
C 237.25 266.19 236.03 262.85 236.00 263.00
C 235.23 263.54 233.65 265.72 233.00 266.00 Z"/>
</g>
<g fill="None" fill-opacity="0.0" stroke="#7EE470" stroke-opacity="1.00" stroke-width="0.3"><path d="
M 421.00 266.00 
C 421.85 266.00 424.29 265.57 425.00 266.00
C 425.77 264.96 423.83 263.77 424.00 263.00
C 423.23 263.54 421.65 265.72 421.00 266.00 Z"/>
</g>
<g fill="None" fill-opacity="0.0" stroke="#80E675" stroke-opacity="1.00" stroke-width="0.3"><path d="
M 43.00 266.00 
C 44.33 266.00 45.67 266.00 47.00 266.00
C 47.50 266.00 48.00 266.00 48.00 266.00
C 48.34 265.33 46.48 264.08 46.00 264.00
C 45.63 264.23 43.25 265.91 43.00 266.00 Z"/>
</g>
<g fill="None" fill-opacity="0.0" stroke="#938A27" stroke-opacity="1.00" stroke-width="0.3"><path d="
M 48.00 266.00 
C 48.00 266.00 47.50 266.00 47.00 266.00
C 47.00 266.00 46.96 267.00 47.00 267.00
C 55.31 266.25 64.71 266.90 73.00 267.00 C 81.29 267.10 90.99 265.98 99.00 267.00 C 107.01 268.02 118.08 264.04 125.00 268.00
C 124.75 267.75 125.00 267.00 125.00 267.00
C 125.00 266.50 125.00 266.00 125.00 266.00
C 125.05 265.20 124.00 264.14 124.00 264.00
C 115.11 270.68 98.30 264.60 87.00 266.00 C 75.70 267.40 59.72 266.00 48.00 266.00 Z"/>
</g>
<g fill="None" fill-opacity="0.0" stroke="#75E576" stroke-opacity="1.00" stroke-width="0.3"><path d="
M 139.00 266.00 
C 140.39 266.00 142.69 265.55 144.00 266.00
C 143.34 265.70 143.18 264.19 142.00 264.00
C 141.53 264.28 139.33 265.88 139.00 266.00 Z"/>
</g>
<g fill="None" fill-opacity="0.0" stroke="#928A26" stroke-opacity="1.00" stroke-width="0.3"><path d="
M 144.00 266.00 
C 144.15 266.05 144.00 267.00 144.00 267.00
C 153.53 264.88 164.25 268.12 174.00 267.00 C 183.75 265.88 194.19 267.88 204.00 267.00
C 203.96 267.00 204.00 266.00 204.00 266.00
C 204.05 265.20 203.00 264.14 203.00 264.00
C 195.63 269.54 183.10 264.67 174.00 266.00 C 164.90 267.33 153.34 265.16 144.00 266.00 Z"/>
</g>
<g fill="None" fill-opacity="0.0" stroke="#74E476" stroke-opacity="1.00" stroke-width="0.3"><path d="
M 326.00 266.00 
C 327.39 266.00 329.69 265.55 331.00 266.00
C 330.34 265.70 330.18 264.19 329.00 264.00
C 328.53 264.28 326.33 265.88 326.00 266.00 Z"/>
</g>
<g fill="None" fill-opacity="0.0" stroke="#958B25" stroke-opacity="1.00" stroke-width="0.3"><path d="
M 331.00 266.00 
C 331.15 266.05 331.00 267.00 331.00 267.00
C 340.49 266.14 350.47 267.00 360.00 267.00
C 359.75 266.75 360.00 266.00 360.00 266.00
C 359.88 265.34 358.97 264.61 359.00 264.00
C 352.33 269.01 339.19 265.26 331.00 266.00 Z"/>
</g>
<g fill="None" fill-opacity="0.0" stroke="#988F21" stroke-opacity="1.00" stroke-width="0.3"><path d="
M 425.00 266.00 
C 425.22 266.13 425.00 267.00 425.00 267.00
C 427.62 266.76 430.37 267.00 433.00 267.00
C 433.00 267.00 433.09 266.48 433.00 266.00
C 432.89 265.41 431.94 264.52 432.00 264.00
C 429.59 265.60 428.10 266.26 425.00 266.00 Z"/>
</g>
<g fill="None" fill-opacity="0.0" stroke="#598D5C" stroke-opacity="0.27" stroke-width="0.3"><path d="
M 434.00 267.00 
C 434.25 267.25 434.00 268.00 434.00 268.00
C 459.76 265.51 486.18 269.87 512.00 268.00
L 512.00 265.00
C 511.30 264.25 509.70 264.42 509.00 264.00
C 509.17 265.29 510.70 265.75 511.00 267.00
C 485.33 267.00 459.67 267.00 434.00 267.00 Z"/>
</g>
<g fill="None" fill-opacity="0.0" stroke="#327F37" stroke-opacity="0.97" stroke-width="0.3"><path d="
M 125.00 267.00 
C 131.28 266.43 137.72 267.56 144.00 267.00
C 144.00 267.00 144.15 266.05 144.00 266.00
C 142.69 265.55 140.39 266.00 139.00 266.00
C 134.40 266.00 129.58 265.59 125.00 266.00
C 125.00 266.00 125.00 266.50 125.00 267.00 Z"/>
</g>
<g fill="None" fill-opacity="0.0" stroke="#2D7D35" stroke-opacity="0.97" stroke-width="0.3"><path d="
M 204.00 267.00 
C 214.91 266.02 226.09 267.98 237.00 267.00
C 236.96 267.00 237.00 266.00 237.00 266.00
C 236.29 265.57 233.85 266.00 233.00 266.00
C 223.47 266.00 213.49 265.14 204.00 266.00
C 204.00 266.00 203.96 267.00 204.00 267.00 Z"/>
</g>
<g fill="None" fill-opacity="0.0" stroke="#918727" stroke-opacity="1.00" stroke-width="0.3"><path d="
M 237.00 267.00 
C 251.40 265.70 266.53 267.00 281.00 267.00
C 280.75 266.75 281.00 266.00 281.00 266.00
C 280.00 266.00 279.00 266.00 278.00 266.00
C 264.52 266.00 250.42 264.79 237.00 266.00
C 237.00 266.00 236.96 267.00 237.00 267.00 Z"/>
</g>
<g fill="None" fill-opacity="0.0" stroke="#2E7D34" stroke-opacity="0.97" stroke-width="0.3"><path d="
M 281.00 267.00 
C 281.50 267.00 282.00 267.00 282.00 267.00
C 298.11 267.00 314.96 268.44 331.00 267.00
C 331.00 267.00 331.15 266.05 331.00 266.00
C 329.69 265.55 327.39 266.00 326.00 266.00
C 311.33 266.00 296.67 266.00 282.00 266.00
C 282.00 266.00 281.50 266.00 281.00 266.00
C 281.00 266.00 280.75 266.75 281.00 267.00 Z"/>
</g>
<g fill="None" fill-opacity="0.0" stroke="#2C7C34" stroke-opacity="0.97" stroke-width="0.3"><path d="
M 360.00 267.00 
C 360.50 267.00 361.00 267.00 361.00 267.00
C 382.04 267.00 404.05 268.88 425.00 267.00
C 425.00 267.00 425.22 266.13 425.00 266.00
C 424.29 265.57 421.85 266.00 421.00 266.00
C 400.94 266.00 379.96 264.20 360.00 266.00
C 360.00 266.00 359.75 266.75 360.00 267.00 Z"/>
</g>
<g fill="None" fill-opacity="0.0" stroke="#5B905F" stroke-opacity="0.27" stroke-width="0.3"><path d="
M 4.00 268.00 
C 18.14 268.00 32.93 269.27 47.00 268.00
C 46.75 267.74 47.00 267.00 47.00 267.00
C 32.78 268.28 18.22 265.72 4.00 267.00
C 4.00 267.00 4.22 267.87 4.00 268.00 Z"/>
</g>
<g fill="None" fill-opacity="0.0" stroke="#C6C599" stroke-opacity="0.60" stroke-width="0.3"><path d="
M 47.00 268.00 
C 51.84 273.00 65.71 267.34 73.00 269.00 C 80.29 270.66 92.03 268.10 100.00 269.00 C 107.97 269.90 118.68 268.71 126.00 268.00
C 125.50 268.00 125.00 268.00 125.00 268.00
C 118.08 264.04 107.01 268.02 99.00 267.00 C 90.99 265.98 81.29 267.10 73.00 267.00 C 64.71 266.90 55.31 266.25 47.00 267.00
C 47.00 267.00 46.75 267.74 47.00 268.00 Z"/>
</g>
<g fill="None" fill-opacity="0.0" stroke="#578957" stroke-opacity="0.28" stroke-width="0.3"><path d="
M 125.00 268.00 
C 125.00 268.00 125.50 268.00 126.00 268.00
C 131.47 268.00 137.59 268.78 143.00 268.00
C 143.35 267.95 143.77 267.05 144.00 267.00
C 137.72 267.56 131.28 266.43 125.00 267.00
C 125.00 267.00 124.75 267.75 125.00 268.00 Z"/>
</g>
<g fill="None" fill-opacity="0.0" stroke="#C6C599" stroke-opacity="0.60" stroke-width="0.3"><path d="
M 143.00 268.00 
C 148.63 268.55 156.74 269.81 163.00 269.00 C 169.26 268.19 178.20 270.26 184.00 269.00 C 189.80 267.74 200.12 272.01 204.00 268.00
C 204.25 267.74 204.00 267.00 204.00 267.00
C 194.19 267.88 183.75 265.88 174.00 267.00 C 164.25 268.12 153.53 264.88 144.00 267.00
C 143.77 267.05 143.35 267.95 143.00 268.00 Z"/>
</g>
<g fill="None" fill-opacity="0.0" stroke="#548957" stroke-opacity="0.27" stroke-width="0.3"><path d="
M 204.00 268.00 
C 214.90 266.95 226.09 268.99 237.00 268.00
C 236.75 267.74 237.00 267.00 237.00 267.00
C 226.09 267.98 214.91 266.02 204.00 267.00
C 204.00 267.00 204.25 267.74 204.00 268.00 Z"/>
</g>
<g fill="None" fill-opacity="0.0" stroke="#C6C599" stroke-opacity="0.60" stroke-width="0.3"><path d="
M 237.00 268.00 
C 240.11 271.21 254.20 269.13 259.00 269.00 C 263.80 268.87 278.79 271.32 282.00 268.00
C 282.25 267.74 282.00 267.00 282.00 267.00
C 282.00 267.00 281.50 267.00 281.00 267.00
C 266.53 267.00 251.40 265.70 237.00 267.00
C 237.00 267.00 236.75 267.74 237.00 268.00 Z"/>
</g>
<g fill="None" fill-opacity="0.0" stroke="#548957" stroke-opacity="0.28" stroke-width="0.3"><path d="
M 282.00 268.00 
C 297.66 266.48 314.25 268.00 330.00 268.00
C 330.50 268.00 331.00 268.00 331.00 268.00
C 331.25 267.75 331.00 267.00 331.00 267.00
C 314.96 268.44 298.11 267.00 282.00 267.00
C 282.00 267.00 282.25 267.74 282.00 268.00 Z"/>
</g>
<g fill="None" fill-opacity="0.0" stroke="#BCBB83" stroke-opacity="0.95" stroke-width="0.3"><path d="
M 331.00 268.00 
C 340.86 268.00 351.18 268.89 361.00 268.00
C 360.96 268.00 361.00 267.00 361.00 267.00
C 361.00 267.00 360.50 267.00 360.00 267.00
C 350.47 267.00 340.49 266.14 331.00 267.00
C 331.00 267.00 331.25 267.75 331.00 268.00 Z"/>
</g>
<g fill="None" fill-opacity="0.0" stroke="#538957" stroke-opacity="0.27" stroke-width="0.3"><path d="
M 361.00 268.00 
C 382.14 265.95 403.85 269.91 425.00 268.00
C 424.75 267.74 425.00 267.00 425.00 267.00
C 404.05 268.88 382.04 267.00 361.00 267.00
C 361.00 267.00 360.96 268.00 361.00 268.00 Z"/>
</g>
<g fill="None" fill-opacity="0.0" stroke="#C5C498" stroke-opacity="0.56" stroke-width="0.3"><path d="
M 425.00 268.00 
C 426.63 269.68 432.41 269.65 434.00 268.00
C 434.00 268.00 434.25 267.25 434.00 267.00
C 434.00 267.00 433.50 267.00 433.00 267.00
C 430.37 267.00 427.62 266.76 425.00 267.00
C 425.00 267.00 424.75 267.74 425.00 268.00 Z"/>
</g>
<g fill="None" fill-opacity="0.0" stroke="#000000" stroke-opacity="0.00" stroke-width="0.3"><path d="
M 0.00 373.00 
L 512.00 373.00
L 512.00 268.00
C 486.18 269.87 459.76 265.51 434.00 268.00
C 432.41 269.65 426.63 269.68 425.00 268.00
C 403.85 269.91 382.14 265.95 361.00 268.00
C 351.25 268.94 339.68 268.94 330.00 268.00
C 314.25 268.00 297.66 266.48 282.00 268.00
C 278.79 271.32 263.80 268.87 259.00 269.00 C 254.20 269.13 240.11 271.21 237.00 268.00
C 226.09 268.99 214.90 266.95 204.00 268.00
C 200.12 272.01 189.80 267.74 184.00 269.00 C 178.20 270.26 169.26 268.19 163.00 269.00 C 156.74 269.81 148.63 268.55 143.00 268.00
C 137.59 268.78 131.47 268.00 126.00 268.00
C 118.68 268.71 107.97 269.90 100.00 269.00 C 92.03 268.10 80.29 270.66 73.00 269.00 C 65.71 267.34 51.84 273.00 47.00 268.00
C 32.93 269.27 18.14 268.00 4.00 268.00
C 2.67 268.00 1.33 268.00 0.00 268.00
L 0.00 373.00 Z"/>
</g>
<g fill="None" fill-opacity="0.0" stroke="#CFCFAF" stroke-opacity="0.24" stroke-width="0.3"><path d="
M 361.00 268.00 
C 351.18 268.89 340.86 268.00 331.00 268.00
C 331.00 268.00 330.50 268.00 330.00 268.00
C 339.68 268.94 351.25 268.94 361.00 268.00 Z"/>
</g>
<g fill="#000000" fill-opacity="0.00" stroke="None">
<path d="
M 0.00 264.00 
C 2.29 263.15 4.08 261.41 6.00 260.00
C 6.96 259.29 8.07 258.67 9.00 258.00
C 9.95 257.32 11.12 256.69 12.00 256.00
C 14.89 253.76 17.96 251.24 21.00 249.00
C 21.95 248.30 23.12 247.69 24.00 247.00
C 28.22 243.73 32.59 240.21 37.00 237.00
C 41.35 233.83 45.61 230.66 50.00 228.00
C 54.97 224.19 59.92 219.88 65.00 216.00
C 66.32 214.99 67.67 213.90 69.00 213.00
C 69.26 212.77 69.70 212.21 70.00 212.00
C 76.07 207.72 82.03 203.35 88.00 199.00
C 88.76 198.26 89.12 197.64 90.00 197.00
C 101.69 188.47 113.81 180.11 125.00 171.00
C 125.25 170.75 126.00 170.01 126.00 170.00
C 125.94 169.86 127.92 169.05 128.00 169.00
C 128.73 168.38 129.18 167.60 130.00 167.00
C 159.27 145.65 188.08 123.72 217.00 102.00
C 221.26 98.80 225.59 95.21 230.00 92.00
C 236.92 86.95 243.50 80.71 251.00 77.00
C 253.65 74.97 253.76 72.97 257.00 74.00
C 268.44 77.65 276.55 90.92 287.25 96.75 C 297.94 102.59 307.22 112.45 317.70 119.30 C 328.17 126.16 337.43 134.97 347.75 142.25 C 358.07 149.53 368.57 157.63 378.75 165.25 C 388.92 172.87 398.87 180.42 409.08 187.92 C 419.30 195.42 428.93 203.37 439.23 210.77 C 449.53 218.17 459.72 226.51 470.00 234.00
C 476.57 238.79 482.72 244.19 489.00 249.00
C 495.90 253.18 502.21 259.86 509.00 264.00
C 509.70 264.42 511.30 264.25 512.00 265.00
L 512.00 0.00
L 0.00 0.00
L 0.00 264.00 Z"/>
</g>
<g fill="#78A778" fill-opacity="0.24" stroke="None">
<path d="
M 251.00 77.00 
C 253.04 75.99 255.42 75.26 257.00 74.00
C 253.76 72.97 253.65 74.97 251.00 77.00 Z"/>
</g>
<g fill="#448849" fill-opacity="0.65" stroke="None">
<path d="
M 251.00 77.00 
C 243.50 80.71 236.92 86.95 230.00 92.00
C 225.93 95.77 220.61 100.05 217.00 102.00
C 188.08 123.72 159.27 145.65 130.00 167.00
C 129.19 167.78 129.00 168.37 128.00 169.00
C 127.92 169.05 125.94 169.86 126.00 170.00
C 125.74 170.24 125.28 170.77 125.00 171.00
C 113.81 180.11 101.69 188.47 90.00 197.00
C 89.24 197.74 88.88 198.36 88.00 199.00
C 82.03 203.35 76.07 207.72 70.00 212.00
C 69.74 212.23 69.31 212.79 69.00 213.00
C 67.67 213.90 66.32 214.99 65.00 216.00
C 60.36 220.46 55.53 224.65 50.00 228.00
C 45.61 230.66 41.35 233.83 37.00 237.00
C 32.93 240.77 27.59 245.03 24.00 247.00
C 23.12 247.69 21.95 248.30 21.00 249.00
C 17.94 251.81 15.39 253.90 12.00 256.00
C 11.12 256.69 9.95 257.32 9.00 258.00
C 7.98 258.95 7.08 260.11 6.00 261.00
C 4.07 262.60 1.05 264.21 1.00 267.00
C 2.00 267.00 3.00 267.00 4.00 267.00
C 18.22 265.72 32.78 268.28 47.00 267.00
C 46.96 267.00 47.00 266.00 47.00 266.00
C 45.67 266.00 44.33 266.00 43.00 266.00
C 29.83 266.00 15.34 266.83 3.00 265.00
C 9.19 260.30 15.11 256.02 21.25 251.25 C 27.38 246.47 34.06 242.04 40.23 237.23 C 46.40 232.42 52.87 227.74 59.08 223.08 C 65.30 218.42 71.14 214.06 77.25 209.25 C 83.36 204.44 90.12 200.12 96.23 195.23 C 102.34 190.34 109.01 185.91 115.23 181.23 C 121.45 176.55 126.88 171.73 133.25 167.25 C 139.61 162.76 145.96 157.98 152.25 153.25 C 158.53 148.51 164.85 143.93 171.08 139.08 C 177.32 134.23 183.87 129.94 190.08 125.08 C 196.29 120.22 201.99 116.29 208.25 111.25 C 214.50 106.20 220.89 102.78 227.08 97.08 C 233.28 91.38 239.80 89.67 246.08 83.08 C 252.36 76.49 257.96 76.23 264.25 82.75 C 270.53 89.28 277.13 90.96 283.25 96.75 C 289.36 102.55 296.15 105.42 302.23 110.77 C 308.31 116.12 314.48 119.44 320.70 124.30 C 326.92 129.17 332.83 134.26 339.25 138.75 C 345.66 143.25 351.97 148.06 358.23 152.77 C 364.49 157.48 370.99 162.11 377.23 166.77 C 383.47 171.43 388.96 176.18 395.25 180.75 C 401.53 185.33 407.93 190.15 414.25 194.75 C 420.56 199.36 426.56 204.73 433.08 208.92 C 439.60 213.11 444.91 218.27 451.25 222.75 C 457.58 227.23 463.99 232.03 470.23 236.77 C 476.47 241.51 482.88 246.18 489.23 250.77 C 495.58 255.36 501.47 260.67 508.00 265.00
C 483.91 267.33 457.85 265.33 433.00 266.00
C 433.09 266.48 433.00 267.00 433.00 267.00
C 433.50 267.00 434.00 267.00 434.00 267.00
C 459.67 267.00 485.33 267.00 511.00 267.00
C 510.70 265.75 509.17 265.29 509.00 264.00
C 502.21 259.86 495.90 253.18 489.00 249.00
C 482.08 244.80 475.85 239.40 470.00 234.00
C 459.72 226.51 449.53 218.17 439.23 210.77 C 428.93 203.37 419.30 195.42 409.08 187.92 C 398.87 180.42 388.92 172.87 378.75 165.25 C 368.57 157.63 358.07 149.53 347.75 142.25 C 337.43 134.97 328.17 126.16 317.70 119.30 C 307.22 112.45 297.94 102.59 287.25 96.75 C 276.55 90.92 268.44 77.65 257.00 74.00
C 255.42 75.26 253.04 75.99 251.00 77.00 Z"/>
</g>
<g fill="#1FB149" fill-opacity="1.00" stroke="None">
<path d="
M 43.00 266.00 
C 43.25 265.91 45.63 264.23 46.00 264.00
C 72.97 247.03 100.02 228.93 127.70 212.70 C 155.37 196.47 181.76 177.38 209.75 161.75 C 237.73 146.11 263.26 124.84 292.00 111.00
C 292.85 110.59 293.76 109.11 295.00 109.00
C 294.43 111.45 290.99 113.21 289.00 115.00
C 270.30 130.98 253.04 148.35 234.25 164.25 C 215.45 180.14 198.12 198.54 178.92 213.92 C 159.71 229.30 143.49 249.36 124.00 264.00
C 124.00 264.14 125.05 265.20 125.00 266.00
C 129.58 265.59 134.40 266.00 139.00 266.00
C 139.33 265.88 141.53 264.28 142.00 264.00
C 174.76 244.59 205.79 221.87 239.08 203.08 C 272.36 184.29 302.95 159.11 337.00 142.00
C 337.87 141.56 338.24 139.10 340.00 140.00
C 338.74 141.93 337.00 143.91 335.00 145.00
C 311.83 163.29 291.93 185.53 268.75 203.75 C 245.57 221.98 226.43 246.40 203.00 264.00
C 203.00 264.14 204.05 265.20 204.00 266.00
C 213.49 265.14 223.47 266.00 233.00 266.00
C 233.65 265.72 235.23 263.54 236.00 263.00
C 282.12 230.38 333.36 204.56 380.00 173.00
C 348.65 201.70 316.82 230.65 285.00 259.00
C 282.96 261.04 280.40 263.25 282.00 266.00
C 296.67 266.00 311.33 266.00 326.00 266.00
C 326.33 265.88 328.53 264.28 329.00 264.00
C 359.85 245.72 389.56 224.29 421.00 207.00
C 401.21 226.83 378.91 244.46 359.00 264.00
C 358.97 264.61 359.88 265.34 360.00 266.00
C 379.96 264.20 400.94 266.00 421.00 266.00
C 421.65 265.72 423.23 263.54 424.00 263.00
C 436.22 254.36 449.63 247.39 462.00 239.00
C 453.58 247.80 441.22 255.31 432.00 264.00
C 431.94 264.52 432.89 265.41 433.00 266.00
C 457.85 265.33 483.91 267.33 508.00 265.00
C 501.47 260.67 495.58 255.36 489.23 250.77 C 482.88 246.18 476.47 241.51 470.23 236.77 C 463.99 232.03 457.58 227.23 451.25 222.75 C 444.91 218.27 439.60 213.11 433.08 208.92 C 426.56 204.73 420.56 199.36 414.25 194.75 C 407.93 190.15 401.53 185.33 395.25 180.75 C 388.96 176.18 383.47 171.43 377.23 166.77 C 370.99 162.11 364.49 157.48 358.23 152.77 C 351.97 148.06 345.66 143.25 339.25 138.75 C 332.83 134.26 326.92 129.17 320.70 124.30 C 314.48 119.44 308.31 116.12 302.23 110.77 C 296.15 105.42 289.36 102.55 283.25 96.75 C 277.13 90.96 270.53 89.28 264.25 82.75 C 257.96 76.23 252.36 76.49 246.08 83.08 C 239.80 89.67 233.28 91.38 227.08 97.08 C 220.89 102.78 214.50 106.20 208.25 111.25 C 201.99 116.29 196.29 120.22 190.08 125.08 C 183.87 129.94 177.32 134.23 171.08 139.08 C 164.85 143.93 158.53 148.51 152.25 153.25 C 145.96 157.98 139.61 162.76 133.25 167.25 C 126.88 171.73 121.45 176.55 115.23 181.23 C 109.01 185.91 102.34 190.34 96.23 195.23 C 90.12 200.12 83.36 204.44 77.25 209.25 C 71.14 214.06 65.30 218.42 59.08 223.08 C 52.87 227.74 46.40 232.42 40.23 237.23 C 34.06 242.04 27.38 246.47 21.25 251.25 C 15.11 256.02 9.19 260.30 3.00 265.00
C 15.34 266.83 29.83 266.00 43.00 266.00 Z"/>
</g>
<g fill="#689A6C" fill-opacity="0.16" stroke="None">
<path d="
M 217.00 102.00 
C 220.61 100.05 225.93 95.77 230.00 92.00
C 225.59 95.21 221.26 98.80 217.00 102.00 Z"/>
</g>
<g fill="#A3C715" fill-opacity="1.00" stroke="None">
<path d="
M 292.00 111.00 
C 290.85 111.97 290.01 113.95 289.00 115.00
C 290.99 113.21 294.43 111.45 295.00 109.00
C 293.76 109.11 292.85 110.59 292.00 111.00 Z"/>
</g>
<g fill="#FCF000" fill-opacity="1.00" stroke="None">
<path d="
M 46.00 264.00 
C 46.48 264.08 48.34 265.33 48.00 266.00
C 59.72 266.00 75.70 267.40 87.00 266.00 C 98.30 264.60 115.11 270.68 124.00 264.00
C 143.49 249.36 159.71 229.30 178.92 213.92 C 198.12 198.54 215.45 180.14 234.25 164.25 C 253.04 148.35 270.30 130.98 289.00 115.00
C 290.01 113.95 290.85 111.97 292.00 111.00
C 263.26 124.84 237.73 146.11 209.75 161.75 C 181.76 177.38 155.37 196.47 127.70 212.70 C 100.02 228.93 72.97 247.03 46.00 264.00 Z"/>
</g>
<g fill="#91C322" fill-opacity="1.00" stroke="None">
<path d="
M 337.00 142.00 
C 336.25 142.83 335.72 144.24 335.00 145.00
C 337.00 143.91 338.74 141.93 340.00 140.00
C 338.24 139.10 337.87 141.56 337.00 142.00 Z"/>
</g>
<g fill="#FBF000" fill-opacity="1.00" stroke="None">
<path d="
M 142.00 264.00 
C 143.18 264.19 143.34 265.70 144.00 266.00
C 153.34 265.16 164.90 267.33 174.00 266.00 C 183.10 264.67 195.63 269.54 203.00 264.00
C 226.43 246.40 245.57 221.98 268.75 203.75 C 291.93 185.53 311.83 163.29 335.00 145.00
C 335.72 144.24 336.25 142.83 337.00 142.00
C 302.95 159.11 272.36 184.29 239.08 203.08 C 205.79 221.87 174.76 244.59 142.00 264.00 Z"/>
</g>
<g fill="#BECEBD" fill-opacity="0.02" stroke="None">
<path d="
M 128.00 169.00 
C 129.00 168.37 129.19 167.78 130.00 167.00
C 129.18 167.60 128.73 168.38 128.00 169.00 Z"/>
</g>
<g fill="#FFFFFF" fill-opacity="0.00" stroke="None">
<path d="
M 125.00 171.00 
C 125.28 170.77 125.74 170.24 126.00 170.00
C 126.00 170.01 125.25 170.75 125.00 171.00 Z"/>
</g>
<g fill="#FAEF00" fill-opacity="1.00" stroke="None">
<path d="
M 236.00 263.00 
C 236.03 262.85 237.25 266.19 237.00 266.00
C 250.42 264.79 264.52 266.00 278.00 266.00
C 279.71 265.37 283.41 260.36 285.00 259.00
C 316.82 230.65 348.65 201.70 380.00 173.00
C 333.36 204.56 282.12 230.38 236.00 263.00 Z"/>
</g>
<g fill="#BED4BD" fill-opacity="0.02" stroke="None">
<path d="
M 88.00 199.00 
C 88.88 198.36 89.24 197.74 90.00 197.00
C 89.12 197.64 88.76 198.26 88.00 199.00 Z"/>
</g>
<g fill="#F8EE01" fill-opacity="1.00" stroke="None">
<path d="
M 329.00 264.00 
C 330.18 264.19 330.34 265.70 331.00 266.00
C 339.19 265.26 352.33 269.01 359.00 264.00
C 378.91 244.46 401.21 226.83 421.00 207.00
C 389.56 224.29 359.85 245.72 329.00 264.00 Z"/>
</g>
<g fill="#FFFFFF" fill-opacity="0.00" stroke="None">
<path d="
M 69.00 213.00 
C 69.31 212.79 69.74 212.23 70.00 212.00
C 69.70 212.21 69.26 212.77 69.00 213.00 Z"/>
</g>
<g fill="#66966B" fill-opacity="0.14" stroke="None">
<path d="
M 50.00 228.00 
C 55.53 224.65 60.36 220.46 65.00 216.00
C 59.92 219.88 54.97 224.19 50.00 228.00 Z"/>
</g>
<g fill="#5D9260" fill-opacity="0.14" stroke="None">
<path d="
M 489.00 249.00 
C 482.72 244.19 476.57 238.79 470.00 234.00
C 475.85 239.40 482.08 244.80 489.00 249.00 Z"/>
</g>
<g fill="#6C9675" fill-opacity="0.15" stroke="None">
<path d="
M 24.00 247.00 
C 27.59 245.03 32.93 240.77 37.00 237.00
C 32.59 240.21 28.22 243.73 24.00 247.00 Z"/>
</g>
<g fill="#E8E604" fill-opacity="1.00" stroke="None">
<path d="
M 424.00 263.00 
C 423.83 263.77 425.77 264.96 425.00 266.00
C 428.10 266.26 429.59 265.60 432.00 264.00
C 441.22 255.31 453.58 247.80 462.00 239.00
C 449.63 247.39 436.22 254.36 424.00 263.00 Z"/>
</g>
<g fill="#6D9C74" fill-opacity="0.12" stroke="None">
<path d="
M 12.00 256.00 
C 15.39 253.90 17.94 251.81 21.00 249.00
C 17.96 251.24 14.89 253.76 12.00 256.00 Z"/>
</g>
<g fill="#76AE78" fill-opacity="0.09" stroke="None">
<path d="
M 6.00 260.00 
C 5.75 260.27 6.00 261.00 6.00 261.00
C 7.08 260.11 7.98 258.95 9.00 258.00
C 8.07 258.67 6.96 259.29 6.00 260.00 Z"/>
</g>
<g fill="#A3B70F" fill-opacity="1.00" stroke="None">
<path d="
M 278.00 266.00 
C 279.00 266.00 280.00 266.00 281.00 266.00
C 281.50 266.00 282.00 266.00 282.00 266.00
C 280.40 263.25 282.96 261.04 285.00 259.00
C 283.41 260.36 279.71 265.37 278.00 266.00 Z"/>
</g>
<g fill="#A3CCAC" fill-opacity="0.34" stroke="None">
<path d="
M 0.00 264.00 
L 0.00 268.00
C 1.33 268.00 2.67 268.00 4.00 268.00
C 4.22 267.87 4.00 267.00 4.00 267.00
C 3.00 267.00 2.00 267.00 1.00 267.00
C 1.05 264.21 4.07 262.60 6.00 261.00
C 6.00 261.00 5.75 260.27 6.00 260.00
C 4.08 261.41 2.29 263.15 0.00 264.00 Z"/>
</g>
<g fill="#80E470" fill-opacity="1.00" stroke="None">
<path d="
M 233.00 266.00 
C 233.85 266.00 236.29 265.57 237.00 266.00
C 237.25 266.19 236.03 262.85 236.00 263.00
C 235.23 263.54 233.65 265.72 233.00 266.00 Z"/>
</g>
<g fill="#7EE470" fill-opacity="1.00" stroke="None">
<path d="
M 421.00 266.00 
C 421.85 266.00 424.29 265.57 425.00 266.00
C 425.77 264.96 423.83 263.77 424.00 263.00
C 423.23 263.54 421.65 265.72 421.00 266.00 Z"/>
</g>
<g fill="#80E675" fill-opacity="1.00" stroke="None">
<path d="
M 43.00 266.00 
C 44.33 266.00 45.67 266.00 47.00 266.00
C 47.50 266.00 48.00 266.00 48.00 266.00
C 48.34 265.33 46.48 264.08 46.00 264.00
C 45.63 264.23 43.25 265.91 43.00 266.00 Z"/>
</g>
<g fill="#938A27" fill-opacity="1.00" stroke="None">
<path d="
M 48.00 266.00 
C 48.00 266.00 47.50 266.00 47.00 266.00
C 47.00 266.00 46.96 267.00 47.00 267.00
C 55.31 266.25 64.71 266.90 73.00 267.00 C 81.29 267.10 90.99 265.98 99.00 267.00 C 107.01 268.02 118.08 264.04 125.00 268.00
C 124.75 267.75 125.00 267.00 125.00 267.00
C 125.00 266.50 125.00 266.00 125.00 266.00
C 125.05 265.20 124.00 264.14 124.00 264.00
C 115.11 270.68 98.30 264.60 87.00 266.00 C 75.70 267.40 59.72 266.00 48.00 266.00 Z"/>
</g>
<g fill="#75E576" fill-opacity="1.00" stroke="None">
<path d="
M 139.00 266.00 
C 140.39 266.00 142.69 265.55 144.00 266.00
C 143.34 265.70 143.18 264.19 142.00 264.00
C 141.53 264.28 139.33 265.88 139.00 266.00 Z"/>
</g>
<g fill="#928A26" fill-opacity="1.00" stroke="None">
<path d="
M 144.00 266.00 
C 144.15 266.05 144.00 267.00 144.00 267.00
C 153.53 264.88 164.25 268.12 174.00 267.00 C 183.75 265.88 194.19 267.88 204.00 267.00
C 203.96 267.00 204.00 266.00 204.00 266.00
C 204.05 265.20 203.00 264.14 203.00 264.00
C 195.63 269.54 183.10 264.67 174.00 266.00 C 164.90 267.33 153.34 265.16 144.00 266.00 Z"/>
</g>
<g fill="#74E476" fill-opacity="1.00" stroke="None">
<path d="
M 326.00 266.00 
C 327.39 266.00 329.69 265.55 331.00 266.00
C 330.34 265.70 330.18 264.19 329.00 264.00
C 328.53 264.28 326.33 265.88 326.00 266.00 Z"/>
</g>
<g fill="#958B25" fill-opacity="1.00" stroke="None">
<path d="
M 331.00 266.00 
C 331.15 266.05 331.00 267.00 331.00 267.00
C 340.49 266.14 350.47 267.00 360.00 267.00
C 359.75 266.75 360.00 266.00 360.00 266.00
C 359.88 265.34 358.97 264.61 359.00 264.00
C 352.33 269.01 339.19 265.26 331.00 266.00 Z"/>
</g>
<g fill="#988F21" fill-opacity="1.00" stroke="None">
<path d="
M 425.00 266.00 
C 425.22 266.13 425.00 267.00 425.00 267.00
C 427.62 266.76 430.37 267.00 433.00 267.00
C 433.00 267.00 433.09 266.48 433.00 266.00
C 432.89 265.41 431.94 264.52 432.00 264.00
C 429.59 265.60 428.10 266.26 425.00 266.00 Z"/>
</g>
<g fill="#598D5C" fill-opacity="0.27" stroke="None">
<path d="
M 434.00 267.00 
C 434.25 267.25 434.00 268.00 434.00 268.00
C 459.76 265.51 486.18 269.87 512.00 268.00
L 512.00 265.00
C 511.30 264.25 509.70 264.42 509.00 264.00
C 509.17 265.29 510.70 265.75 511.00 267.00
C 485.33 267.00 459.67 267.00 434.00 267.00 Z"/>
</g>
<g fill="#327F37" fill-opacity="0.97" stroke="None">
<path d="
M 125.00 267.00 
C 131.28 266.43 137.72 267.56 144.00 267.00
C 144.00 267.00 144.15 266.05 144.00 266.00
C 142.69 265.55 140.39 266.00 139.00 266.00
C 134.40 266.00 129.58 265.59 125.00 266.00
C 125.00 266.00 125.00 266.50 125.00 267.00 Z"/>
</g>
<g fill="#2D7D35" fill-opacity="0.97" stroke="None">
<path d="
M 204.00 267.00 
C 214.91 266.02 226.09 267.98 237.00 267.00
C 236.96 267.00 237.00 266.00 237.00 266.00
C 236.29 265.57 233.85 266.00 233.00 266.00
C 223.47 266.00 213.49 265.14 204.00 266.00
C 204.00 266.00 203.96 267.00 204.00 267.00 Z"/>
</g>
<g fill="#918727" fill-opacity="1.00" stroke="None">
<path d="
M 237.00 267.00 
C 251.40 265.70 266.53 267.00 281.00 267.00
C 280.75 266.75 281.00 266.00 281.00 266.00
C 280.00 266.00 279.00 266.00 278.00 266.00
C 264.52 266.00 250.42 264.79 237.00 266.00
C 237.00 266.00 236.96 267.00 237.00 267.00 Z"/>
</g>
<g fill="#2E7D34" fill-opacity="0.97" stroke="None">
<path d="
M 281.00 267.00 
C 281.50 267.00 282.00 267.00 282.00 267.00
C 298.11 267.00 314.96 268.44 331.00 267.00
C 331.00 267.00 331.15 266.05 331.00 266.00
C 329.69 265.55 327.39 266.00 326.00 266.00
C 311.33 266.00 296.67 266.00 282.00 266.00
C 282.00 266.00 281.50 266.00 281.00 266.00
C 281.00 266.00 280.75 266.75 281.00 267.00 Z"/>
</g>
<g fill="#2C7C34" fill-opacity="0.97" stroke="None">
<path d="
M 360.00 267.00 
C 360.50 267.00 361.00 267.00 361.00 267.00
C 382.04 267.00 404.05 268.88 425.00 267.00
C 425.00 267.00 425.22 266.13 425.00 266.00
C 424.29 265.57 421.85 266.00 421.00 266.00
C 400.94 266.00 379.96 264.20 360.00 266.00
C 360.00 266.00 359.75 266.75 360.00 267.00 Z"/>
</g>
<g fill="#5B905F" fill-opacity="0.27" stroke="None">
<path d="
M 4.00 268.00 
C 18.14 268.00 32.93 269.27 47.00 268.00
C 46.75 267.74 47.00 267.00 47.00 267.00
C 32.78 268.28 18.22 265.72 4.00 267.00
C 4.00 267.00 4.22 267.87 4.00 268.00 Z"/>
</g>
<g fill="#C6C599" fill-opacity="0.60" stroke="None">
<path d="
M 47.00 268.00 
C 51.84 273.00 65.71 267.34 73.00 269.00 C 80.29 270.66 92.03 268.10 100.00 269.00 C 107.97 269.90 118.68 268.71 126.00 268.00
C 125.50 268.00 125.00 268.00 125.00 268.00
C 118.08 264.04 107.01 268.02 99.00 267.00 C 90.99 265.98 81.29 267.10 73.00 267.00 C 64.71 266.90 55.31 266.25 47.00 267.00
C 47.00 267.00 46.75 267.74 47.00 268.00 Z"/>
</g>
<g fill="#578957" fill-opacity="0.28" stroke="None">
<path d="
M 125.00 268.00 
C 125.00 268.00 125.50 268.00 126.00 268.00
C 131.47 268.00 137.59 268.78 143.00 268.00
C 143.35 267.95 143.77 267.05 144.00 267.00
C 137.72 267.56 131.28 266.43 125.00 267.00
C 125.00 267.00 124.75 267.75 125.00 268.00 Z"/>
</g>
<g fill="#C6C599" fill-opacity="0.60" stroke="None">
<path d="
M 143.00 268.00 
C 148.63 268.55 156.74 269.81 163.00 269.00 C 169.26 268.19 178.20 270.26 184.00 269.00 C 189.80 267.74 200.12 272.01 204.00 268.00
C 204.25 267.74 204.00 267.00 204.00 267.00
C 194.19 267.88 183.75 265.88 174.00 267.00 C 164.25 268.12 153.53 264.88 144.00 267.00
C 143.77 267.05 143.35 267.95 143.00 268.00 Z"/>
</g>
<g fill="#548957" fill-opacity="0.27" stroke="None">
<path d="
M 204.00 268.00 
C 214.90 266.95 226.09 268.99 237.00 268.00
C 236.75 267.74 237.00 267.00 237.00 267.00
C 226.09 267.98 214.91 266.02 204.00 267.00
C 204.00 267.00 204.25 267.74 204.00 268.00 Z"/>
</g>
<g fill="#C6C599" fill-opacity="0.60" stroke="None">
<path d="
M 237.00 268.00 
C 240.11 271.21 254.20 269.13 259.00 269.00 C 263.80 268.87 278.79 271.32 282.00 268.00
C 282.25 267.74 282.00 267.00 282.00 267.00
C 282.00 267.00 281.50 267.00 281.00 267.00
C 266.53 267.00 251.40 265.70 237.00 267.00
C 237.00 267.00 236.75 267.74 237.00 268.00 Z"/>
</g>
<g fill="#548957" fill-opacity="0.28" stroke="None">
<path d="
M 282.00 268.00 
C 297.66 266.48 314.25 268.00 330.00 268.00
C 330.50 268.00 331.00 268.00 331.00 268.00
C 331.25 267.75 331.00 267.00 331.00 267.00
C 314.96 268.44 298.11 267.00 282.00 267.00
C 282.00 267.00 282.25 267.74 282.00 268.00 Z"/>
</g>
<g fill="#BCBB83" fill-opacity="0.95" stroke="None">
<path d="
M 331.00 268.00 
C 340.86 268.00 351.18 268.89 361.00 268.00
C 360.96 268.00 361.00 267.00 361.00 267.00
C 361.00 267.00 360.50 267.00 360.00 267.00
C 350.47 267.00 340.49 266.14 331.00 267.00
C 331.00 267.00 331.25 267.75 331.00 268.00 Z"/>
</g>
<g fill="#538957" fill-opacity="0.27" stroke="None">
<path d="
M 361.00 268.00 
C 382.14 265.95 403.85 269.91 425.00 268.00
C 424.75 267.74 425.00 267.00 425.00 267.00
C 404.05 268.88 382.04 267.00 361.00 267.00
C 361.00 267.00 360.96 268.00 361.00 268.00 Z"/>
</g>
<g fill="#C5C498" fill-opacity="0.56" stroke="None">
<path d="
M 425.00 268.00 
C 426.63 269.68 432.41 269.65 434.00 268.00
C 434.00 268.00 434.25 267.25 434.00 267.00
C 434.00 267.00 433.50 267.00 433.00 267.00
C 430.37 267.00 427.62 266.76 425.00 267.00
C 425.00 267.00 424.75 267.74 425.00 268.00 Z"/>
</g>
<g fill="#000000" fill-opacity="0.00" stroke="None">
<path d="
M 0.00 373.00 
L 512.00 373.00
L 512.00 268.00
C 486.18 269.87 459.76 265.51 434.00 268.00
C 432.41 269.65 426.63 269.68 425.00 268.00
C 403.85 269.91 382.14 265.95 361.00 268.00
C 351.25 268.94 339.68 268.94 330.00 268.00
C 314.25 268.00 297.66 266.48 282.00 268.00
C 278.79 271.32 263.80 268.87 259.00 269.00 C 254.20 269.13 240.11 271.21 237.00 268.00
C 226.09 268.99 214.90 266.95 204.00 268.00
C 200.12 272.01 189.80 267.74 184.00 269.00 C 178.20 270.26 169.26 268.19 163.00 269.00 C 156.74 269.81 148.63 268.55 143.00 268.00
C 137.59 268.78 131.47 268.00 126.00 268.00
C 118.68 268.71 107.97 269.90 100.00 269.00 C 92.03 268.10 80.29 270.66 73.00 269.00 C 65.71 267.34 51.84 273.00 47.00 268.00
C 32.93 269.27 18.14 268.00 4.00 268.00
C 2.67 268.00 1.33 268.00 0.00 268.00
L 0.00 373.00 Z"/>
</g>
<g fill="#CFCFAF" fill-opacity="0.24" stroke="None">
<path d="
M 361.00 268.00 
C 351.18 268.89 340.86 268.00 331.00 268.00
C 331.00 268.00 330.50 268.00 330.00 268.00
C 339.68 268.94 351.25 268.94 361.00 268.00 Z"/>
</g>
</svg>